<svg width="189" height="49" viewBox="0 0 189 49" fill="none" xmlns="http://www.w3.org/2000/svg">
	<path d="M75.8,35.8h-5.1l-8.6-13v13H57V14.7h5.1l8.6,13.1V14.7h5.1V35.8z M82.7,35c-1.3-0.7-2.3-1.7-3.1-3
	s-1.1-2.8-1.1-4.6c0-1.7,0.4-3.2,1.1-4.5c0.8-1.3,1.8-2.3,3.1-3c1.3-0.7,2.8-1,4.4-1c1.6,0,3.1,0.4,4.4,1c1.3,0.7,2.4,1.7,3.1,3
	c0.8,1.3,1.1,2.8,1.1,4.5c0,1.7-0.4,3.2-1.2,4.5c-0.8,1.3-1.8,2.3-3.2,3s-2.8,1-4.5,1C85.5,36,84.1,35.7,82.7,35z M89.7,30.5
	c0.7-0.7,1-1.8,1-3.1c0-1.3-0.3-2.4-1-3.1c-0.7-0.7-1.5-1.1-2.5-1.1c-1,0-1.8,0.4-2.5,1.1c-0.7,0.7-1,1.7-1,3.1c0,1.3,0.3,2.4,1,3.1
	c0.6,0.7,1.5,1.1,2.4,1.1C88.1,31.6,89,31.2,89.7,30.5z M106.2,31l3.6-11.9h5.5l-5.9,16.7H103l-5.9-16.7h5.5L106.2,31z M117.4,22.9
	c0.6-1.3,1.5-2.3,2.7-3c1.1-0.7,2.4-1,3.8-1c1.2,0,2.2,0.2,3.1,0.7c0.9,0.5,1.6,1.1,2.1,1.9v-2.4h5.1v16.7H129v-2.4
	c-0.5,0.8-1.2,1.4-2.1,1.9c-0.9,0.5-1.9,0.7-3.1,0.7c-1.4,0-2.6-0.4-3.7-1.1c-1.1-0.7-2-1.7-2.7-3c-0.7-1.3-1-2.8-1-4.5
	S116.7,24.2,117.4,22.9z M127.9,24.4c-0.7-0.7-1.6-1.1-2.6-1.1c-1,0-1.9,0.4-2.6,1.1c-0.7,0.7-1.1,1.7-1.1,3s0.4,2.3,1.1,3
	s1.6,1.1,2.6,1.1c1,0,1.9-0.4,2.6-1.1c0.7-0.7,1.1-1.8,1.1-3C129,26.2,128.6,25.1,127.9,24.4z M142.9,13.6v22.2h-5.1V13.6H142.9z
	 M147,16.5c-0.6-0.5-0.9-1.2-0.9-2c0-0.8,0.3-1.5,0.9-2c0.6-0.5,1.3-0.8,2.2-0.8c0.9,0,1.6,0.3,2.2,0.8c0.6,0.5,0.9,1.2,0.9,2
	c0,0.8-0.3,1.4-0.9,2c-0.6,0.5-1.3,0.8-2.2,0.8C148.3,17.3,147.6,17.1,147,16.5z M151.8,19.1v16.7h-5.1V19.1H151.8z M155.5,22.9
	c0.6-1.3,1.5-2.3,2.7-3c1.1-0.7,2.4-1,3.8-1c1.2,0,2.2,0.2,3.1,0.7c0.9,0.5,1.6,1.1,2.1,1.9v-2.4h5.1v16.7H167v-2.4
	c-0.5,0.8-1.2,1.4-2.1,1.9c-0.9,0.5-1.9,0.7-3.1,0.7c-1.4,0-2.6-0.4-3.7-1.1c-1.1-0.7-2-1.7-2.7-3c-0.7-1.3-1-2.8-1-4.5
	S154.8,24.2,155.5,22.9z M166,24.4c-0.7-0.7-1.6-1.1-2.6-1.1c-1,0-1.9,0.4-2.6,1.1c-0.7,0.7-1.1,1.7-1.1,3s0.4,2.3,1.1,3
	s1.6,1.1,2.6,1.1c1,0,1.9-0.4,2.6-1.1c0.7-0.7,1.1-1.8,1.1-3C167,26.2,166.7,25.1,166,24.4z" fill="#1E84B5"/>
	<g clip-path="url(#clip0_107_530)">
	<path fill-rule="evenodd" clip-rule="evenodd" d="M0.867763 9.74394C0.512717 10.9669 1.9329 12.604 4.65492 14.1031C5.72006 11.1444 7.83061 8.7577 11.0063 8.34348C15.3457 7.77146 17.4563 9.44806 21.0659 8.58017C24.3205 7.79118 26.7664 4.28017 32.2301 2.72192C32.8613 2.54439 33.4925 2.46549 34.1237 2.46549C35.2875 1.42008 35.7214 -0.0395508 35.7214 -0.0395508L35.5439 1.26228C35.1691 3.92513 33.098 5.99623 30.4352 6.371L29.1334 6.56825L30.4352 6.74577C33.098 7.12054 35.1691 9.21137 35.5439 11.8545L35.7214 13.1563L35.9187 11.8545C36.2934 9.21137 38.3646 7.12054 41.0274 6.74577L42.3292 6.56825C42.3292 6.56825 41.8361 6.84439 41.343 7.45586C42.3884 9.94118 42.3687 13.1958 40.4554 16.7462C38.3251 20.7504 36.7668 23.8471 35.6425 26.51C31.4806 26.4311 25.9182 25.4054 19.4485 23.5907C4.59574 19.4682 -2.2093 11.6572 0.867763 9.74394ZM26.4508 13.1563L26.865 13.2155C27.6934 13.3338 28.3444 13.9848 28.4627 14.8132L28.5219 15.2077L28.5811 14.8132C28.6994 13.9848 29.3503 13.3338 30.1788 13.2155L30.5733 13.1563L30.1788 13.0971C29.3503 12.9788 28.6994 12.3279 28.5811 11.4994L28.5219 11.0852L28.4627 11.4994C28.3444 12.3279 27.6934 12.9788 26.865 13.0971L26.4508 13.1563Z" fill="#0E384C"/>
	<path d="M43.4736 23.295C47.1621 30.7904 37.0827 33.0785 19.1135 27.595C13.7878 25.9776 8.1465 23.2753 3.96484 20.4744C4.08319 21.4212 4.30016 22.3285 4.61576 23.1569C7.31805 30.2776 8.02815 33.6308 7.89007 38.779C7.752 44.3611 12.9199 43.0395 14.991 36.8854C16.0167 33.828 17.8511 33.0982 18.9951 32.9404C21.5199 33.0785 22.3681 34.6565 23.7685 38.562C25.8988 44.4794 32.1713 44.4202 32.763 37.6744C32.8814 36.5698 32.9997 35.5046 33.1772 34.479C35.8203 34.6959 38.4043 34.4987 40.7713 33.7689C46.5309 31.9542 46.7873 26.1354 43.4736 23.295Z" fill="#1E84B5"/>
	<path d="M40.7713 6.33154C39.9823 5.02971 38.858 4.00402 37.5957 3.33338C36.8264 2.76136 35.9979 1.55815 35.9585 1.47925C36.3924 3.94484 38.3057 5.87787 40.7713 6.33154Z" fill="#0C2834"/>
	</g>
	<defs>
	<clipPath id="clip0_107_530">
	<rect width="45.7615" height="43" fill="white"/>
	</clipPath>
	</defs>
	</svg>
	